<mxfile host="65bd71144e">
    <diagram id="C5RBs43oDa-KdzZeNtuy" name="Page-1">
        <mxGraphModel dx="2179" dy="1636" grid="0" gridSize="10" guides="1" tooltips="1" connect="1" arrows="1" fold="1" page="1" pageScale="1" pageWidth="827" pageHeight="1169" background="#ffffff" math="0" shadow="0">
            <root>
                <mxCell id="WIyWlLk6GJQsqaUBKTNV-0"/>
                <mxCell id="WIyWlLk6GJQsqaUBKTNV-1" parent="WIyWlLk6GJQsqaUBKTNV-0"/>
                <mxCell id="MlrfaoUMbUYHe8lj2B-a-0" value="Chunk" style="swimlane;fontStyle=1;align=center;verticalAlign=top;childLayout=stackLayout;horizontal=1;startSize=26;horizontalStack=0;resizeParent=1;resizeLast=0;collapsible=1;marginBottom=0;rounded=0;shadow=0;strokeWidth=1;fontColor=#000000;labelBackgroundColor=#FFFFFF;" parent="WIyWlLk6GJQsqaUBKTNV-1" vertex="1">
                    <mxGeometry x="-286" y="-163" width="188" height="160" as="geometry">
                        <mxRectangle x="230" y="140" width="160" height="26" as="alternateBounds"/>
                    </mxGeometry>
                </mxCell>
                <mxCell id="MlrfaoUMbUYHe8lj2B-a-1" value="- cell_count: int" style="text;align=left;verticalAlign=top;spacingLeft=4;spacingRight=4;overflow=hidden;rotatable=0;points=[[0,0.5],[1,0.5]];portConstraint=eastwest;fontColor=#000000;labelBackgroundColor=#FFFFFF;" parent="MlrfaoUMbUYHe8lj2B-a-0" vertex="1">
                    <mxGeometry y="26" width="188" height="21" as="geometry"/>
                </mxCell>
                <mxCell id="MlrfaoUMbUYHe8lj2B-a-4" value="" style="line;html=1;strokeWidth=1;align=left;verticalAlign=middle;spacingTop=-1;spacingLeft=3;spacingRight=3;rotatable=0;labelPosition=right;points=[];portConstraint=eastwest;fontColor=#000000;labelBackgroundColor=#FFFFFF;" parent="MlrfaoUMbUYHe8lj2B-a-0" vertex="1">
                    <mxGeometry y="47" width="188" height="12" as="geometry"/>
                </mxCell>
                <mxCell id="MlrfaoUMbUYHe8lj2B-a-5" value="+ get_position(): ChunkPos&#10;+ update(World)+ get_cell(int, int): Cell&#10;+ set_cell(int, int, Cell) &#10;+ swap_cells(int, int, int, int)&#10;+ create_texture(): Texture&#10;+ create_colliders(): Collider[0..*]&#10;" style="text;align=left;verticalAlign=top;spacingLeft=4;spacingRight=4;overflow=hidden;rotatable=0;points=[[0,0.5],[1,0.5]];portConstraint=eastwest;fontColor=#000000;labelBackgroundColor=#FFFFFF;" parent="MlrfaoUMbUYHe8lj2B-a-0" vertex="1">
                    <mxGeometry y="59" width="188" height="100" as="geometry"/>
                </mxCell>
                <mxCell id="MlrfaoUMbUYHe8lj2B-a-14" value="Cell" style="swimlane;fontStyle=1;align=center;verticalAlign=top;childLayout=stackLayout;horizontal=1;startSize=26;horizontalStack=0;resizeParent=1;resizeLast=0;collapsible=1;marginBottom=0;rounded=0;shadow=0;strokeWidth=1;fontColor=#000000;labelBackgroundColor=#FFFFFF;" parent="WIyWlLk6GJQsqaUBKTNV-1" vertex="1">
                    <mxGeometry x="-271.5" y="75" width="159" height="144" as="geometry">
                        <mxRectangle x="230" y="140" width="160" height="26" as="alternateBounds"/>
                    </mxGeometry>
                </mxCell>
                <mxCell id="MlrfaoUMbUYHe8lj2B-a-16" value="+ ra: int&#10;+ rb: int&#10;+ clock: int" style="text;align=left;verticalAlign=top;spacingLeft=4;spacingRight=4;overflow=hidden;rotatable=0;points=[[0,0.5],[1,0.5]];portConstraint=eastwest;rounded=0;shadow=0;html=0;fontColor=#000000;labelBackgroundColor=#FFFFFF;" parent="MlrfaoUMbUYHe8lj2B-a-14" vertex="1">
                    <mxGeometry y="26" width="159" height="50" as="geometry"/>
                </mxCell>
                <mxCell id="MlrfaoUMbUYHe8lj2B-a-25" value="" style="line;html=1;strokeWidth=1;align=left;verticalAlign=middle;spacingTop=-1;spacingLeft=3;spacingRight=3;rotatable=0;labelPosition=right;points=[];portConstraint=eastwest;fontColor=#000000;labelBackgroundColor=#FFFFFF;" parent="MlrfaoUMbUYHe8lj2B-a-14" vertex="1">
                    <mxGeometry y="76" width="159" height="14" as="geometry"/>
                </mxCell>
                <mxCell id="MlrfaoUMbUYHe8lj2B-a-26" value="+ update(ChunkAPI)&#10;+ get_element(): Element&#10;+ get_simulation(): Simulation&#10;" style="text;align=left;verticalAlign=top;spacingLeft=4;spacingRight=4;overflow=hidden;rotatable=0;points=[[0,0.5],[1,0.5]];portConstraint=eastwest;fontColor=#000000;labelBackgroundColor=#FFFFFF;" parent="MlrfaoUMbUYHe8lj2B-a-14" vertex="1">
                    <mxGeometry y="90" width="159" height="54" as="geometry"/>
                </mxCell>
                <mxCell id="MlrfaoUMbUYHe8lj2B-a-27" value="Element" style="swimlane;fontStyle=1;align=center;verticalAlign=top;childLayout=stackLayout;horizontal=1;startSize=26;horizontalStack=0;resizeParent=1;resizeLast=0;collapsible=1;marginBottom=0;rounded=0;shadow=0;strokeWidth=1;fontColor=#000000;labelBackgroundColor=#FFFFFF;fillColor=#FFFFFF;" parent="WIyWlLk6GJQsqaUBKTNV-1" vertex="1">
                    <mxGeometry x="-98" y="238" width="130" height="151" as="geometry">
                        <mxRectangle x="230" y="140" width="160" height="26" as="alternateBounds"/>
                    </mxGeometry>
                </mxCell>
                <mxCell id="MlrfaoUMbUYHe8lj2B-a-28" value="- name: String&#10;- color: int[4]&#10;- matter: Matter" style="text;align=left;verticalAlign=top;spacingLeft=4;spacingRight=4;overflow=hidden;rotatable=0;points=[[0,0.5],[1,0.5]];portConstraint=eastwest;rounded=0;shadow=0;html=0;fontColor=#000000;labelBackgroundColor=#FFFFFF;" parent="MlrfaoUMbUYHe8lj2B-a-27" vertex="1">
                    <mxGeometry y="26" width="130" height="54" as="geometry"/>
                </mxCell>
                <mxCell id="MlrfaoUMbUYHe8lj2B-a-33" value="" style="line;html=1;strokeWidth=1;align=left;verticalAlign=middle;spacingTop=-1;spacingLeft=3;spacingRight=3;rotatable=0;labelPosition=right;points=[];portConstraint=eastwest;fontColor=#000000;labelBackgroundColor=#FFFFFF;" parent="MlrfaoUMbUYHe8lj2B-a-27" vertex="1">
                    <mxGeometry y="80" width="130" height="14" as="geometry"/>
                </mxCell>
                <mxCell id="MlrfaoUMbUYHe8lj2B-a-34" value="get_name(): String&#10;get_color: int[4]&#10;get_matter: Matter&#10;" style="text;align=left;verticalAlign=top;spacingLeft=4;spacingRight=4;overflow=hidden;rotatable=0;points=[[0,0.5],[1,0.5]];portConstraint=eastwest;fontColor=#000000;labelBackgroundColor=#FFFFFF;" parent="MlrfaoUMbUYHe8lj2B-a-27" vertex="1">
                    <mxGeometry y="94" width="130" height="54" as="geometry"/>
                </mxCell>
                <mxCell id="MlrfaoUMbUYHe8lj2B-a-79" value="Particle" style="swimlane;fontStyle=1;align=center;verticalAlign=top;childLayout=stackLayout;horizontal=1;startSize=58;horizontalStack=0;resizeParent=1;resizeLast=0;collapsible=1;marginBottom=0;rounded=0;shadow=0;strokeWidth=1;fontColor=#000000;labelBackgroundColor=#FFFFFF;" parent="WIyWlLk6GJQsqaUBKTNV-1" vertex="1">
                    <mxGeometry x="-521.5" y="77" width="83" height="30" as="geometry">
                        <mxRectangle x="230" y="140" width="160" height="26" as="alternateBounds"/>
                    </mxGeometry>
                </mxCell>
                <mxCell id="MlrfaoUMbUYHe8lj2B-a-84" value="" style="endArrow=block;dashed=1;endFill=0;endSize=12;html=1;rounded=0;exitX=0.5;exitY=1;exitDx=0;exitDy=0;fontColor=#000000;labelBackgroundColor=#FFFFFF;" parent="WIyWlLk6GJQsqaUBKTNV-1" source="MlrfaoUMbUYHe8lj2B-a-79" target="MlrfaoUMbUYHe8lj2B-a-76" edge="1">
                    <mxGeometry width="160" relative="1" as="geometry">
                        <mxPoint x="-515" y="37" as="sourcePoint"/>
                        <mxPoint x="-482" y="-47" as="targetPoint"/>
                    </mxGeometry>
                </mxCell>
                <mxCell id="MlrfaoUMbUYHe8lj2B-a-76" value="&lt;&lt;Interface&gt;&gt;&#10;Simulation" style="swimlane;fontStyle=1;align=center;verticalAlign=top;childLayout=stackLayout;horizontal=1;startSize=44;horizontalStack=0;resizeParent=1;resizeLast=0;collapsible=1;marginBottom=0;rounded=0;shadow=0;strokeWidth=1;fontColor=#000000;labelBackgroundColor=#FFFFFF;" parent="WIyWlLk6GJQsqaUBKTNV-1" vertex="1">
                    <mxGeometry x="-555" y="165" width="150" height="70" as="geometry">
                        <mxRectangle x="230" y="140" width="160" height="26" as="alternateBounds"/>
                    </mxGeometry>
                </mxCell>
                <mxCell id="MlrfaoUMbUYHe8lj2B-a-77" value="# update(Cell)" style="text;align=left;verticalAlign=top;spacingLeft=4;spacingRight=4;overflow=hidden;rotatable=0;points=[[0,0.5],[1,0.5]];portConstraint=eastwest;fontColor=#000000;labelBackgroundColor=#FFFFFF;" parent="MlrfaoUMbUYHe8lj2B-a-76" vertex="1">
                    <mxGeometry y="44" width="150" height="20" as="geometry"/>
                </mxCell>
                <mxCell id="MlrfaoUMbUYHe8lj2B-a-123" value="" style="orthogonalLoop=1;jettySize=auto;html=1;endArrow=none;endFill=0;startArrow=block;startFill=0;rounded=0;dashed=1;endSize=12;startSize=12;fontColor=#000000;labelBackgroundColor=#FFFFFF;" parent="WIyWlLk6GJQsqaUBKTNV-1" source="MlrfaoUMbUYHe8lj2B-a-110" target="MlrfaoUMbUYHe8lj2B-a-122" edge="1">
                    <mxGeometry relative="1" as="geometry">
                        <mxPoint x="-350.41322314049603" y="385" as="sourcePoint"/>
                    </mxGeometry>
                </mxCell>
                <mxCell id="MlrfaoUMbUYHe8lj2B-a-110" value="&lt;div&gt;&amp;lt;&amp;lt;Interface&amp;gt;&amp;gt;&lt;/div&gt;&lt;div&gt;Matter&lt;br&gt;&lt;/div&gt;" style="swimlane;fontStyle=1;align=center;verticalAlign=top;childLayout=stackLayout;horizontal=1;startSize=40;horizontalStack=0;resizeParent=1;resizeParentMax=0;resizeLast=0;collapsible=1;marginBottom=0;whiteSpace=wrap;html=1;fontColor=#000000;labelBackgroundColor=#FFFFFF;" parent="WIyWlLk6GJQsqaUBKTNV-1" vertex="1">
                    <mxGeometry x="-366.5" y="278.5" width="120" height="70" as="geometry"/>
                </mxCell>
                <mxCell id="MlrfaoUMbUYHe8lj2B-a-113" value="# update(Cell) " style="text;strokeColor=none;fillColor=none;align=left;verticalAlign=top;spacingLeft=4;spacingRight=4;overflow=hidden;rotatable=0;points=[[0,0.5],[1,0.5]];portConstraint=eastwest;whiteSpace=wrap;html=1;fontColor=#000000;labelBackgroundColor=#FFFFFF;" parent="MlrfaoUMbUYHe8lj2B-a-110" vertex="1">
                    <mxGeometry y="40" width="120" height="30" as="geometry"/>
                </mxCell>
                <mxCell id="MlrfaoUMbUYHe8lj2B-a-122" value="Static" style="whiteSpace=wrap;html=1;verticalAlign=top;fontStyle=1;startSize=40;fontColor=#000000;labelBackgroundColor=#FFFFFF;" parent="WIyWlLk6GJQsqaUBKTNV-1" vertex="1">
                    <mxGeometry x="-418.5" y="395.5" width="70" height="30" as="geometry"/>
                </mxCell>
                <mxCell id="MlrfaoUMbUYHe8lj2B-a-136" value="" style="orthogonalLoop=1;jettySize=auto;html=1;endArrow=none;endFill=0;startArrow=block;startFill=0;rounded=0;dashed=1;endSize=12;startSize=12;fontColor=#000000;labelBackgroundColor=#FFFFFF;" parent="WIyWlLk6GJQsqaUBKTNV-1" source="MlrfaoUMbUYHe8lj2B-a-110" target="MlrfaoUMbUYHe8lj2B-a-137" edge="1">
                    <mxGeometry relative="1" as="geometry">
                        <mxPoint x="-365" y="373.3440514469453" as="sourcePoint"/>
                    </mxGeometry>
                </mxCell>
                <mxCell id="MlrfaoUMbUYHe8lj2B-a-137" value="Powder" style="whiteSpace=wrap;html=1;verticalAlign=top;fontStyle=1;startSize=40;fontColor=#000000;labelBackgroundColor=#FFFFFF;" parent="WIyWlLk6GJQsqaUBKTNV-1" vertex="1">
                    <mxGeometry x="-495.5" y="395.5" width="70" height="30" as="geometry"/>
                </mxCell>
                <mxCell id="MlrfaoUMbUYHe8lj2B-a-138" value="" style="orthogonalLoop=1;jettySize=auto;html=1;endArrow=none;endFill=0;startArrow=block;startFill=0;rounded=0;dashed=1;endSize=12;startSize=12;fontColor=#000000;labelBackgroundColor=#FFFFFF;" parent="WIyWlLk6GJQsqaUBKTNV-1" source="MlrfaoUMbUYHe8lj2B-a-110" target="MlrfaoUMbUYHe8lj2B-a-139" edge="1">
                    <mxGeometry relative="1" as="geometry">
                        <mxPoint x="-305.8677685950413" y="385" as="sourcePoint"/>
                    </mxGeometry>
                </mxCell>
                <mxCell id="MlrfaoUMbUYHe8lj2B-a-139" value="Liquid" style="whiteSpace=wrap;html=1;verticalAlign=top;fontStyle=1;startSize=40;fontColor=#000000;labelBackgroundColor=#FFFFFF;" parent="WIyWlLk6GJQsqaUBKTNV-1" vertex="1">
                    <mxGeometry x="-341.5" y="395.5" width="70" height="30" as="geometry"/>
                </mxCell>
                <mxCell id="MlrfaoUMbUYHe8lj2B-a-140" value="" style="orthogonalLoop=1;jettySize=auto;html=1;endArrow=none;endFill=0;startArrow=block;startFill=0;rounded=0;dashed=1;endSize=12;startSize=12;fontColor=#000000;labelBackgroundColor=#FFFFFF;" parent="WIyWlLk6GJQsqaUBKTNV-1" source="MlrfaoUMbUYHe8lj2B-a-110" target="MlrfaoUMbUYHe8lj2B-a-141" edge="1">
                    <mxGeometry relative="1" as="geometry">
                        <mxPoint x="-245" y="373.80327868852464" as="sourcePoint"/>
                    </mxGeometry>
                </mxCell>
                <mxCell id="MlrfaoUMbUYHe8lj2B-a-141" value="Static" style="whiteSpace=wrap;html=1;verticalAlign=top;fontStyle=1;startSize=40;fontColor=#000000;labelBackgroundColor=#FFFFFF;" parent="WIyWlLk6GJQsqaUBKTNV-1" vertex="1">
                    <mxGeometry x="-187.5" y="395.5" width="70" height="30" as="geometry"/>
                </mxCell>
                <mxCell id="MlrfaoUMbUYHe8lj2B-a-142" value="" style="orthogonalLoop=1;jettySize=auto;html=1;endArrow=none;endFill=0;startArrow=block;startFill=0;rounded=0;dashed=1;endSize=12;startSize=12;fontColor=#000000;labelBackgroundColor=#FFFFFF;" parent="WIyWlLk6GJQsqaUBKTNV-1" source="MlrfaoUMbUYHe8lj2B-a-110" target="MlrfaoUMbUYHe8lj2B-a-143" edge="1">
                    <mxGeometry relative="1" as="geometry">
                        <mxPoint x="-261.9008264462809" y="385" as="sourcePoint"/>
                    </mxGeometry>
                </mxCell>
                <mxCell id="MlrfaoUMbUYHe8lj2B-a-143" value="Gas" style="whiteSpace=wrap;html=1;verticalAlign=top;fontStyle=1;startSize=40;fontColor=#000000;labelBackgroundColor=#FFFFFF;" parent="WIyWlLk6GJQsqaUBKTNV-1" vertex="1">
                    <mxGeometry x="-265.5" y="395.5" width="70" height="30" as="geometry"/>
                </mxCell>
                <mxCell id="MlrfaoUMbUYHe8lj2B-a-149" value="CA" style="swimlane;fontStyle=1;align=center;verticalAlign=top;childLayout=stackLayout;horizontal=1;startSize=58;horizontalStack=0;resizeParent=1;resizeLast=0;collapsible=1;marginBottom=0;rounded=0;shadow=0;strokeWidth=1;fontColor=#000000;labelBackgroundColor=#FFFFFF;" parent="WIyWlLk6GJQsqaUBKTNV-1" vertex="1">
                    <mxGeometry x="-424" y="77" width="83" height="30" as="geometry">
                        <mxRectangle x="230" y="140" width="160" height="26" as="alternateBounds"/>
                    </mxGeometry>
                </mxCell>
                <mxCell id="MlrfaoUMbUYHe8lj2B-a-150" value="Rigidbody" style="swimlane;fontStyle=1;align=center;verticalAlign=top;childLayout=stackLayout;horizontal=1;startSize=58;horizontalStack=0;resizeParent=1;resizeLast=0;collapsible=1;marginBottom=0;rounded=0;shadow=0;strokeWidth=1;fontColor=#000000;labelBackgroundColor=#FFFFFF;" parent="WIyWlLk6GJQsqaUBKTNV-1" vertex="1">
                    <mxGeometry x="-619" y="77" width="83" height="30" as="geometry">
                        <mxRectangle x="230" y="140" width="160" height="26" as="alternateBounds"/>
                    </mxGeometry>
                </mxCell>
                <mxCell id="MlrfaoUMbUYHe8lj2B-a-151" value="" style="endArrow=block;dashed=1;endFill=0;endSize=12;html=1;rounded=0;exitX=0.5;exitY=1;exitDx=0;exitDy=0;fontColor=#000000;labelBackgroundColor=#FFFFFF;" parent="WIyWlLk6GJQsqaUBKTNV-1" source="MlrfaoUMbUYHe8lj2B-a-150" target="MlrfaoUMbUYHe8lj2B-a-76" edge="1">
                    <mxGeometry width="160" relative="1" as="geometry">
                        <mxPoint x="-470" y="118" as="sourcePoint"/>
                        <mxPoint x="-470" y="175" as="targetPoint"/>
                    </mxGeometry>
                </mxCell>
                <mxCell id="MlrfaoUMbUYHe8lj2B-a-152" value="" style="endArrow=block;dashed=1;endFill=0;endSize=12;html=1;rounded=0;exitX=0.5;exitY=1;exitDx=0;exitDy=0;fontColor=#000000;labelBackgroundColor=#FFFFFF;" parent="WIyWlLk6GJQsqaUBKTNV-1" source="MlrfaoUMbUYHe8lj2B-a-149" target="MlrfaoUMbUYHe8lj2B-a-76" edge="1">
                    <mxGeometry width="160" relative="1" as="geometry">
                        <mxPoint x="-460" y="128" as="sourcePoint"/>
                        <mxPoint x="-460" y="185" as="targetPoint"/>
                    </mxGeometry>
                </mxCell>
                <mxCell id="MlrfaoUMbUYHe8lj2B-a-160" value="1" style="endArrow=open;html=1;endSize=12;startArrow=diamondThin;startSize=14;startFill=0;edgeStyle=orthogonalEdgeStyle;align=left;verticalAlign=bottom;rounded=0;entryX=0.5;entryY=0;entryDx=0;entryDy=0;fontColor=#000000;labelBackgroundColor=#FFFFFF;" parent="WIyWlLk6GJQsqaUBKTNV-1" source="MlrfaoUMbUYHe8lj2B-a-14" target="MlrfaoUMbUYHe8lj2B-a-27" edge="1">
                    <mxGeometry x="-0.7603" y="4" relative="1" as="geometry">
                        <mxPoint x="-81.5" y="213.5" as="sourcePoint"/>
                        <mxPoint x="78.5" y="213.5" as="targetPoint"/>
                        <Array as="points">
                            <mxPoint x="-33.5" y="196.5"/>
                        </Array>
                        <mxPoint y="1" as="offset"/>
                    </mxGeometry>
                </mxCell>
                <mxCell id="MlrfaoUMbUYHe8lj2B-a-161" value="1" style="endArrow=open;html=1;endSize=12;startArrow=diamondThin;startSize=14;startFill=1;edgeStyle=orthogonalEdgeStyle;align=left;verticalAlign=bottom;rounded=0;fontColor=#000000;labelBackgroundColor=#FFFFFF;" parent="WIyWlLk6GJQsqaUBKTNV-1" source="MlrfaoUMbUYHe8lj2B-a-27" target="MlrfaoUMbUYHe8lj2B-a-110" edge="1">
                    <mxGeometry x="-0.6364" y="-6" relative="1" as="geometry">
                        <mxPoint x="-187.5" y="292.5" as="sourcePoint"/>
                        <mxPoint x="-27.5" y="292.5" as="targetPoint"/>
                        <mxPoint as="offset"/>
                    </mxGeometry>
                </mxCell>
                <mxCell id="MlrfaoUMbUYHe8lj2B-a-162" value="1" style="endArrow=open;html=1;endSize=12;startArrow=diamondThin;startSize=14;startFill=1;edgeStyle=orthogonalEdgeStyle;align=left;verticalAlign=bottom;rounded=0;fontColor=#000000;labelBackgroundColor=#FFFFFF;" parent="WIyWlLk6GJQsqaUBKTNV-1" source="MlrfaoUMbUYHe8lj2B-a-14" target="MlrfaoUMbUYHe8lj2B-a-76" edge="1">
                    <mxGeometry x="-0.7373" y="-3" relative="1" as="geometry">
                        <mxPoint x="-90" y="325" as="sourcePoint"/>
                        <mxPoint x="-238" y="325" as="targetPoint"/>
                        <mxPoint as="offset"/>
                    </mxGeometry>
                </mxCell>
                <mxCell id="MlrfaoUMbUYHe8lj2B-a-164" value="4096" style="endArrow=open;html=1;endSize=12;startArrow=diamondThin;startSize=14;startFill=1;edgeStyle=orthogonalEdgeStyle;align=left;verticalAlign=bottom;rounded=0;fontColor=#000000;labelBackgroundColor=#FFFFFF;strokeColor=#000000;" parent="WIyWlLk6GJQsqaUBKTNV-1" source="MlrfaoUMbUYHe8lj2B-a-0" target="MlrfaoUMbUYHe8lj2B-a-14" edge="1">
                    <mxGeometry x="-0.1538" y="2" relative="1" as="geometry">
                        <mxPoint x="-276.5" y="197.5" as="sourcePoint"/>
                        <mxPoint x="-393.5" y="246.5" as="targetPoint"/>
                        <mxPoint as="offset"/>
                    </mxGeometry>
                </mxCell>
                <mxCell id="MlrfaoUMbUYHe8lj2B-a-205" style="edgeStyle=orthogonalEdgeStyle;rounded=0;orthogonalLoop=1;jettySize=auto;html=1;fontColor=#000000;labelBackgroundColor=#FFFFFF;" parent="WIyWlLk6GJQsqaUBKTNV-1" source="MlrfaoUMbUYHe8lj2B-a-166" target="MlrfaoUMbUYHe8lj2B-a-186" edge="1">
                    <mxGeometry relative="1" as="geometry"/>
                </mxCell>
                <mxCell id="MlrfaoUMbUYHe8lj2B-a-166" value="World" style="swimlane;fontStyle=1;align=center;verticalAlign=top;childLayout=stackLayout;horizontal=1;startSize=26;horizontalStack=0;resizeParent=1;resizeLast=0;collapsible=1;marginBottom=0;rounded=0;shadow=0;strokeWidth=1;fontColor=#000000;labelBackgroundColor=#FFFFFF;" parent="WIyWlLk6GJQsqaUBKTNV-1" vertex="1">
                    <mxGeometry x="-593.5" y="-516" width="227" height="223" as="geometry">
                        <mxRectangle x="230" y="140" width="160" height="26" as="alternateBounds"/>
                    </mxGeometry>
                </mxCell>
                <mxCell id="MlrfaoUMbUYHe8lj2B-a-167" value="- clock: int&#10;- previous_update_ms: int&#10;" style="text;align=left;verticalAlign=top;spacingLeft=4;spacingRight=4;overflow=hidden;rotatable=0;points=[[0,0.5],[1,0.5]];portConstraint=eastwest;fontColor=#000000;labelBackgroundColor=#FFFFFF;" parent="MlrfaoUMbUYHe8lj2B-a-166" vertex="1">
                    <mxGeometry y="26" width="227" height="43" as="geometry"/>
                </mxCell>
                <mxCell id="MlrfaoUMbUYHe8lj2B-a-168" value="" style="line;html=1;strokeWidth=1;align=left;verticalAlign=middle;spacingTop=-1;spacingLeft=3;spacingRight=3;rotatable=0;labelPosition=right;points=[];portConstraint=eastwest;fontColor=#000000;labelBackgroundColor=#FFFFFF;" parent="MlrfaoUMbUYHe8lj2B-a-166" vertex="1">
                    <mxGeometry y="69" width="227" height="12" as="geometry"/>
                </mxCell>
                <mxCell id="MlrfaoUMbUYHe8lj2B-a-169" value="- rigidbody_step()&#10;- ca_step()&#10;- particle_step()&#10;+ check_for_update(int)&#10;+ set_cell_by_pixel(int, int, Element)&#10;+ get_cell_by_pixel(int, int): Cell&#10;+ place_object(cells: Cell[1..*], bool)&#10;+ update(EventBus)&#10;+ render(EventBus)" style="text;align=left;verticalAlign=top;spacingLeft=4;spacingRight=4;overflow=hidden;rotatable=0;points=[[0,0.5],[1,0.5]];portConstraint=eastwest;fontColor=#000000;labelBackgroundColor=#FFFFFF;" parent="MlrfaoUMbUYHe8lj2B-a-166" vertex="1">
                    <mxGeometry y="81" width="227" height="142" as="geometry"/>
                </mxCell>
                <mxCell id="MlrfaoUMbUYHe8lj2B-a-178" value="ChunkPos" style="swimlane;fontStyle=1;align=center;verticalAlign=top;childLayout=stackLayout;horizontal=1;startSize=26;horizontalStack=0;resizeParent=1;resizeLast=0;collapsible=1;marginBottom=0;rounded=0;shadow=0;strokeWidth=1;fontColor=#000000;labelBackgroundColor=#FFFFFF;" parent="WIyWlLk6GJQsqaUBKTNV-1" vertex="1">
                    <mxGeometry x="-41" y="-351" width="188" height="106" as="geometry">
                        <mxRectangle x="230" y="140" width="160" height="26" as="alternateBounds"/>
                    </mxGeometry>
                </mxCell>
                <mxCell id="MlrfaoUMbUYHe8lj2B-a-179" value="+ x: int&#10;+ y: int" style="text;align=left;verticalAlign=top;spacingLeft=4;spacingRight=4;overflow=hidden;rotatable=0;points=[[0,0.5],[1,0.5]];portConstraint=eastwest;fontColor=#000000;labelBackgroundColor=#FFFFFF;" parent="MlrfaoUMbUYHe8lj2B-a-178" vertex="1">
                    <mxGeometry y="26" width="188" height="39" as="geometry"/>
                </mxCell>
                <mxCell id="MlrfaoUMbUYHe8lj2B-a-180" value="" style="line;html=1;strokeWidth=1;align=left;verticalAlign=middle;spacingTop=-1;spacingLeft=3;spacingRight=3;rotatable=0;labelPosition=right;points=[];portConstraint=eastwest;fontColor=#000000;labelBackgroundColor=#FFFFFF;" parent="MlrfaoUMbUYHe8lj2B-a-178" vertex="1">
                    <mxGeometry y="65" width="188" height="12" as="geometry"/>
                </mxCell>
                <mxCell id="MlrfaoUMbUYHe8lj2B-a-181" value="+ add(ChunkPos): ChunkPos" style="text;align=left;verticalAlign=top;spacingLeft=4;spacingRight=4;overflow=hidden;rotatable=0;points=[[0,0.5],[1,0.5]];portConstraint=eastwest;fontColor=#000000;labelBackgroundColor=#FFFFFF;" parent="MlrfaoUMbUYHe8lj2B-a-178" vertex="1">
                    <mxGeometry y="77" width="188" height="26" as="geometry"/>
                </mxCell>
                <mxCell id="MlrfaoUMbUYHe8lj2B-a-186" value="ChunkMap" style="rounded=0;whiteSpace=wrap;html=1;fontStyle=1;fontColor=#000000;labelBackgroundColor=#FFFFFF;" parent="WIyWlLk6GJQsqaUBKTNV-1" vertex="1">
                    <mxGeometry x="-252" y="-314" width="120" height="36" as="geometry"/>
                </mxCell>
                <mxCell id="MlrfaoUMbUYHe8lj2B-a-187" value="" style="endArrow=none;html=1;edgeStyle=orthogonalEdgeStyle;rounded=0;entryX=0.5;entryY=0;entryDx=0;entryDy=0;fontColor=#000000;labelBackgroundColor=#FFFFFF;" parent="WIyWlLk6GJQsqaUBKTNV-1" source="MlrfaoUMbUYHe8lj2B-a-186" target="MlrfaoUMbUYHe8lj2B-a-0" edge="1">
                    <mxGeometry relative="1" as="geometry">
                        <mxPoint x="317" y="258" as="sourcePoint"/>
                        <mxPoint x="475" y="258" as="targetPoint"/>
                    </mxGeometry>
                </mxCell>
                <mxCell id="MlrfaoUMbUYHe8lj2B-a-188" value="values 0..*" style="edgeLabel;resizable=0;html=1;align=left;verticalAlign=bottom;fontColor=#000000;labelBackgroundColor=#FFFFFF;" parent="MlrfaoUMbUYHe8lj2B-a-187" connectable="0" vertex="1">
                    <mxGeometry x="-1" relative="1" as="geometry">
                        <mxPoint x="-25" y="70" as="offset"/>
                    </mxGeometry>
                </mxCell>
                <mxCell id="MlrfaoUMbUYHe8lj2B-a-190" value="" style="endArrow=none;html=1;edgeStyle=orthogonalEdgeStyle;rounded=0;exitX=1;exitY=0.5;exitDx=0;exitDy=0;fontColor=#000000;labelBackgroundColor=#FFFFFF;" parent="WIyWlLk6GJQsqaUBKTNV-1" source="MlrfaoUMbUYHe8lj2B-a-186" target="MlrfaoUMbUYHe8lj2B-a-178" edge="1">
                    <mxGeometry relative="1" as="geometry">
                        <mxPoint y="-195.04" as="sourcePoint"/>
                        <mxPoint x="-90" y="-375.04" as="targetPoint"/>
                    </mxGeometry>
                </mxCell>
                <mxCell id="MlrfaoUMbUYHe8lj2B-a-191" value="keys 0..*" style="edgeLabel;resizable=0;html=1;align=left;verticalAlign=bottom;fontColor=#000000;labelBackgroundColor=#FFFFFF;" parent="MlrfaoUMbUYHe8lj2B-a-190" connectable="0" vertex="1">
                    <mxGeometry x="-1" relative="1" as="geometry">
                        <mxPoint x="23" y="9" as="offset"/>
                    </mxGeometry>
                </mxCell>
                <mxCell id="MlrfaoUMbUYHe8lj2B-a-196" value="ChunkApi" style="swimlane;fontStyle=1;align=center;verticalAlign=top;childLayout=stackLayout;horizontal=1;startSize=26;horizontalStack=0;resizeParent=1;resizeLast=0;collapsible=1;marginBottom=0;rounded=0;shadow=0;strokeWidth=1;fontColor=#000000;labelBackgroundColor=#FFFFFF;" parent="WIyWlLk6GJQsqaUBKTNV-1" vertex="1">
                    <mxGeometry x="-574" y="-190" width="188" height="222" as="geometry">
                        <mxRectangle x="230" y="140" width="160" height="26" as="alternateBounds"/>
                    </mxGeometry>
                </mxCell>
                <mxCell id="MlrfaoUMbUYHe8lj2B-a-197" value="+ cell_position_x: int&#10;+ cell_position_y: int&#10;+ clock: int&#10;" style="text;align=left;verticalAlign=top;spacingLeft=4;spacingRight=4;overflow=hidden;rotatable=0;points=[[0,0.5],[1,0.5]];portConstraint=eastwest;fontColor=#000000;labelBackgroundColor=#FFFFFF;" parent="MlrfaoUMbUYHe8lj2B-a-196" vertex="1">
                    <mxGeometry y="26" width="188" height="53" as="geometry"/>
                </mxCell>
                <mxCell id="MlrfaoUMbUYHe8lj2B-a-198" value="" style="line;html=1;strokeWidth=1;align=left;verticalAlign=middle;spacingTop=-1;spacingLeft=3;spacingRight=3;rotatable=0;labelPosition=right;points=[];portConstraint=eastwest;fontColor=#000000;labelBackgroundColor=#FFFFFF;" parent="MlrfaoUMbUYHe8lj2B-a-196" vertex="1">
                    <mxGeometry y="79" width="188" height="12" as="geometry"/>
                </mxCell>
                <mxCell id="MlrfaoUMbUYHe8lj2B-a-199" value="+ get(int, int): Cell&#10;+ set(int, int, Cell)&#10;+ match(int, int, Element)&#10;+ swap(int, int)&#10;+ update(Cell)&#10;+ random_direction()&#10;+ random_int(int)&#10;+ once_in(int)&#10;&#10;" style="text;align=left;verticalAlign=top;spacingLeft=4;spacingRight=4;overflow=hidden;rotatable=0;points=[[0,0.5],[1,0.5]];portConstraint=eastwest;fontColor=#000000;labelBackgroundColor=#FFFFFF;" parent="MlrfaoUMbUYHe8lj2B-a-196" vertex="1">
                    <mxGeometry y="91" width="188" height="131" as="geometry"/>
                </mxCell>
                <mxCell id="MlrfaoUMbUYHe8lj2B-a-201" value="Uses" style="endArrow=open;endSize=12;dashed=1;html=1;rounded=0;edgeStyle=orthogonalEdgeStyle;fontColor=#000000;labelBackgroundColor=#FFFFFF;" parent="WIyWlLk6GJQsqaUBKTNV-1" target="MlrfaoUMbUYHe8lj2B-a-0" edge="1">
                    <mxGeometry width="160" relative="1" as="geometry">
                        <mxPoint x="-386" y="-84" as="sourcePoint"/>
                        <mxPoint x="-287.52" y="-86" as="targetPoint"/>
                        <Array as="points"/>
                    </mxGeometry>
                </mxCell>
                <mxCell id="MlrfaoUMbUYHe8lj2B-a-202" value="Uses" style="endArrow=open;endSize=12;dashed=1;html=1;rounded=0;edgeStyle=orthogonalEdgeStyle;exitX=0.5;exitY=0;exitDx=0;exitDy=0;fontColor=#000000;labelBackgroundColor=#FFFFFF;" parent="WIyWlLk6GJQsqaUBKTNV-1" source="MlrfaoUMbUYHe8lj2B-a-196" target="MlrfaoUMbUYHe8lj2B-a-166" edge="1">
                    <mxGeometry x="-0.2389" width="160" relative="1" as="geometry">
                        <mxPoint x="-92" y="-249" as="sourcePoint"/>
                        <mxPoint x="89" y="-132" as="targetPoint"/>
                        <mxPoint as="offset"/>
                    </mxGeometry>
                </mxCell>
                <mxCell id="MlrfaoUMbUYHe8lj2B-a-207" value="PhysicsEngine" style="swimlane;fontStyle=1;align=center;verticalAlign=top;childLayout=stackLayout;horizontal=1;startSize=26;horizontalStack=0;resizeParent=1;resizeLast=0;collapsible=1;marginBottom=0;rounded=0;shadow=0;strokeWidth=1;fontColor=#000000;labelBackgroundColor=#FFFFFF;" parent="WIyWlLk6GJQsqaUBKTNV-1" vertex="1">
                    <mxGeometry x="-333" y="-633" width="188" height="70" as="geometry">
                        <mxRectangle x="230" y="140" width="160" height="26" as="alternateBounds"/>
                    </mxGeometry>
                </mxCell>
                <mxCell id="MlrfaoUMbUYHe8lj2B-a-210" value="+ particle_step()&#10;+ rigidbody_step()&#10;" style="text;align=left;verticalAlign=top;spacingLeft=4;spacingRight=4;overflow=hidden;rotatable=0;points=[[0,0.5],[1,0.5]];portConstraint=eastwest;fontColor=#000000;labelBackgroundColor=#FFFFFF;" parent="MlrfaoUMbUYHe8lj2B-a-207" vertex="1">
                    <mxGeometry y="26" width="188" height="44" as="geometry"/>
                </mxCell>
                <mxCell id="MlrfaoUMbUYHe8lj2B-a-211" value="Rigidbody" style="swimlane;fontStyle=1;align=center;verticalAlign=top;childLayout=stackLayout;horizontal=1;startSize=26;horizontalStack=0;resizeParent=1;resizeLast=0;collapsible=1;marginBottom=0;rounded=0;shadow=0;strokeWidth=1;fontColor=#000000;labelBackgroundColor=#FFFFFF;" parent="WIyWlLk6GJQsqaUBKTNV-1" vertex="1">
                    <mxGeometry x="-333" y="-525" width="188" height="108" as="geometry">
                        <mxRectangle x="230" y="140" width="160" height="26" as="alternateBounds"/>
                    </mxGeometry>
                </mxCell>
                <mxCell id="MlrfaoUMbUYHe8lj2B-a-212" value="- width: int&#10;- height: int&#10;- texture: Texture" style="text;align=left;verticalAlign=top;spacingLeft=4;spacingRight=4;overflow=hidden;rotatable=0;points=[[0,0.5],[1,0.5]];portConstraint=eastwest;fontColor=#000000;labelBackgroundColor=#FFFFFF;" parent="MlrfaoUMbUYHe8lj2B-a-211" vertex="1">
                    <mxGeometry y="26" width="188" height="82" as="geometry"/>
                </mxCell>
                <mxCell id="MlrfaoUMbUYHe8lj2B-a-215" value="RigidbodyPoint" style="swimlane;fontStyle=1;align=center;verticalAlign=top;childLayout=stackLayout;horizontal=1;startSize=26;horizontalStack=0;resizeParent=1;resizeLast=0;collapsible=1;marginBottom=0;rounded=0;shadow=0;strokeWidth=1;fontColor=#000000;labelBackgroundColor=#FFFFFF;" parent="WIyWlLk6GJQsqaUBKTNV-1" vertex="1">
                    <mxGeometry x="-90" y="-525" width="188" height="108" as="geometry">
                        <mxRectangle x="230" y="140" width="160" height="26" as="alternateBounds"/>
                    </mxGeometry>
                </mxCell>
                <mxCell id="MlrfaoUMbUYHe8lj2B-a-216" value="- cell: Cell&#10;- texture_point: Vector2&#10;- world_coords_x: int&#10;- world_coords_y: int&#10;&#10;" style="text;align=left;verticalAlign=top;spacingLeft=4;spacingRight=4;overflow=hidden;rotatable=0;points=[[0,0.5],[1,0.5]];portConstraint=eastwest;fontColor=#000000;labelBackgroundColor=#FFFFFF;" parent="MlrfaoUMbUYHe8lj2B-a-215" vertex="1">
                    <mxGeometry y="26" width="188" height="82" as="geometry"/>
                </mxCell>
                <mxCell id="MlrfaoUMbUYHe8lj2B-a-219" value="Vector2" style="swimlane;fontStyle=1;align=center;verticalAlign=top;childLayout=stackLayout;horizontal=1;startSize=26;horizontalStack=0;resizeParent=1;resizeLast=0;collapsible=1;marginBottom=0;rounded=0;shadow=0;strokeWidth=1;fontColor=#000000;labelBackgroundColor=#FFFFFF;" parent="WIyWlLk6GJQsqaUBKTNV-1" vertex="1">
                    <mxGeometry x="150" y="-506.5" width="87" height="71" as="geometry">
                        <mxRectangle x="230" y="140" width="160" height="26" as="alternateBounds"/>
                    </mxGeometry>
                </mxCell>
                <mxCell id="MlrfaoUMbUYHe8lj2B-a-220" value="+ x: float&#10;+ y: float" style="text;align=left;verticalAlign=top;spacingLeft=4;spacingRight=4;overflow=hidden;rotatable=0;points=[[0,0.5],[1,0.5]];portConstraint=eastwest;fontColor=#000000;labelBackgroundColor=#FFFFFF;" parent="MlrfaoUMbUYHe8lj2B-a-219" vertex="1">
                    <mxGeometry y="26" width="87" height="45" as="geometry"/>
                </mxCell>
                <mxCell id="MlrfaoUMbUYHe8lj2B-a-223" value="4..*" style="endArrow=open;html=1;endSize=12;startArrow=diamondThin;startSize=14;startFill=1;edgeStyle=orthogonalEdgeStyle;align=left;verticalAlign=bottom;rounded=0;fontColor=#000000;labelBackgroundColor=#FFFFFF;" parent="WIyWlLk6GJQsqaUBKTNV-1" source="MlrfaoUMbUYHe8lj2B-a-211" target="MlrfaoUMbUYHe8lj2B-a-215" edge="1">
                    <mxGeometry x="-0.7083" y="5" relative="1" as="geometry">
                        <mxPoint x="138" y="-450" as="sourcePoint"/>
                        <mxPoint x="298" y="-450" as="targetPoint"/>
                        <mxPoint as="offset"/>
                    </mxGeometry>
                </mxCell>
                <mxCell id="MlrfaoUMbUYHe8lj2B-a-226" value="1" style="endArrow=open;html=1;endSize=12;startArrow=diamondThin;startSize=14;startFill=1;edgeStyle=orthogonalEdgeStyle;align=left;verticalAlign=bottom;rounded=0;fontColor=#000000;labelBackgroundColor=#FFFFFF;" parent="WIyWlLk6GJQsqaUBKTNV-1" source="MlrfaoUMbUYHe8lj2B-a-215" target="MlrfaoUMbUYHe8lj2B-a-219" edge="1">
                    <mxGeometry x="-0.5385" y="8" relative="1" as="geometry">
                        <mxPoint x="137" y="-554" as="sourcePoint"/>
                        <mxPoint x="297" y="-554" as="targetPoint"/>
                        <mxPoint as="offset"/>
                    </mxGeometry>
                </mxCell>
                <mxCell id="MlrfaoUMbUYHe8lj2B-a-227" value="1" style="endArrow=open;html=1;endSize=12;startArrow=diamondThin;startSize=14;startFill=0;edgeStyle=orthogonalEdgeStyle;align=left;verticalAlign=bottom;rounded=0;exitX=0.993;exitY=0.074;exitDx=0;exitDy=0;exitPerimeter=0;fontColor=#000000;labelBackgroundColor=#FFFFFF;" parent="WIyWlLk6GJQsqaUBKTNV-1" source="MlrfaoUMbUYHe8lj2B-a-0" target="MlrfaoUMbUYHe8lj2B-a-178" edge="1">
                    <mxGeometry x="-0.8837" y="4" relative="1" as="geometry">
                        <mxPoint x="18" y="-92" as="sourcePoint"/>
                        <mxPoint x="18" y="-14" as="targetPoint"/>
                        <mxPoint as="offset"/>
                    </mxGeometry>
                </mxCell>
                <mxCell id="MlrfaoUMbUYHe8lj2B-a-228" value="Particle" style="swimlane;fontStyle=1;align=center;verticalAlign=top;childLayout=stackLayout;horizontal=1;startSize=26;horizontalStack=0;resizeParent=1;resizeLast=0;collapsible=1;marginBottom=0;rounded=0;shadow=0;strokeWidth=1;fontColor=#000000;labelBackgroundColor=#FFFFFF;" parent="WIyWlLk6GJQsqaUBKTNV-1" vertex="1">
                    <mxGeometry x="-47" y="-664" width="188" height="122" as="geometry">
                        <mxRectangle x="230" y="140" width="160" height="26" as="alternateBounds"/>
                    </mxGeometry>
                </mxCell>
                <mxCell id="MlrfaoUMbUYHe8lj2B-a-229" value="- color: int[4]&#10;- x: float&#10;- y: float&#10;- dx: float&#10;- dy: float" style="text;align=left;verticalAlign=top;spacingLeft=4;spacingRight=4;overflow=hidden;rotatable=0;points=[[0,0.5],[1,0.5]];portConstraint=eastwest;fontColor=#000000;labelBackgroundColor=#FFFFFF;" parent="MlrfaoUMbUYHe8lj2B-a-228" vertex="1">
                    <mxGeometry y="26" width="188" height="83" as="geometry"/>
                </mxCell>
                <mxCell id="MlrfaoUMbUYHe8lj2B-a-230" value="0..*" style="endArrow=open;html=1;endSize=12;startArrow=diamondThin;startSize=14;startFill=1;edgeStyle=orthogonalEdgeStyle;align=left;verticalAlign=bottom;rounded=0;exitX=0.997;exitY=0.07;exitDx=0;exitDy=0;exitPerimeter=0;fontColor=#000000;labelBackgroundColor=#FFFFFF;" parent="WIyWlLk6GJQsqaUBKTNV-1" source="MlrfaoUMbUYHe8lj2B-a-210" target="MlrfaoUMbUYHe8lj2B-a-228" edge="1">
                    <mxGeometry x="-0.7345" y="1" relative="1" as="geometry">
                        <mxPoint x="14" y="-525" as="sourcePoint"/>
                        <mxPoint x="111" y="-525" as="targetPoint"/>
                        <mxPoint as="offset"/>
                    </mxGeometry>
                </mxCell>
                <mxCell id="MlrfaoUMbUYHe8lj2B-a-231" value="0..*" style="endArrow=open;html=1;endSize=12;startArrow=diamondThin;startSize=14;startFill=1;edgeStyle=orthogonalEdgeStyle;align=left;verticalAlign=bottom;rounded=0;fontColor=#000000;labelBackgroundColor=#FFFFFF;" parent="WIyWlLk6GJQsqaUBKTNV-1" source="MlrfaoUMbUYHe8lj2B-a-207" target="MlrfaoUMbUYHe8lj2B-a-211" edge="1">
                    <mxGeometry x="0.0526" y="8" relative="1" as="geometry">
                        <mxPoint x="152" y="-514" as="sourcePoint"/>
                        <mxPoint x="249" y="-514" as="targetPoint"/>
                        <mxPoint as="offset"/>
                        <Array as="points">
                            <mxPoint x="-239" y="-449"/>
                        </Array>
                    </mxGeometry>
                </mxCell>
                <mxCell id="MlrfaoUMbUYHe8lj2B-a-232" value="1" style="endArrow=open;html=1;endSize=12;startArrow=diamondThin;startSize=14;startFill=1;edgeStyle=orthogonalEdgeStyle;align=left;verticalAlign=bottom;rounded=0;exitX=0.5;exitY=0;exitDx=0;exitDy=0;fontColor=#000000;labelBackgroundColor=#FFFFFF;" parent="WIyWlLk6GJQsqaUBKTNV-1" source="MlrfaoUMbUYHe8lj2B-a-166" target="MlrfaoUMbUYHe8lj2B-a-207" edge="1">
                    <mxGeometry x="-0.8881" y="16" relative="1" as="geometry">
                        <mxPoint x="-126" y="-556" as="sourcePoint"/>
                        <mxPoint x="-31" y="-439" as="targetPoint"/>
                        <mxPoint as="offset"/>
                        <Array as="points">
                            <mxPoint x="-480" y="-595"/>
                        </Array>
                    </mxGeometry>
                </mxCell>
                <mxCell id="zW2w3F0HKBU591fHyMtr-1" value="EventBus" style="swimlane;fontStyle=1;align=center;verticalAlign=top;childLayout=stackLayout;horizontal=1;startSize=26;horizontalStack=0;resizeParent=1;resizeLast=0;collapsible=1;marginBottom=0;rounded=0;shadow=0;strokeWidth=1;fontColor=#000000;labelBackgroundColor=#FFFFFF;" parent="WIyWlLk6GJQsqaUBKTNV-1" vertex="1">
                    <mxGeometry x="-887" y="-457.5" width="221" height="106" as="geometry">
                        <mxRectangle x="230" y="140" width="160" height="26" as="alternateBounds"/>
                    </mxGeometry>
                </mxCell>
                <mxCell id="zW2w3F0HKBU591fHyMtr-2" value="- cell_count: int" style="text;align=left;verticalAlign=top;spacingLeft=4;spacingRight=4;overflow=hidden;rotatable=0;points=[[0,0.5],[1,0.5]];portConstraint=eastwest;fontColor=#000000;labelBackgroundColor=#FFFFFF;" parent="zW2w3F0HKBU591fHyMtr-1" vertex="1">
                    <mxGeometry y="26" width="221" height="21" as="geometry"/>
                </mxCell>
                <mxCell id="zW2w3F0HKBU591fHyMtr-3" value="" style="line;html=1;strokeWidth=1;align=left;verticalAlign=middle;spacingTop=-1;spacingLeft=3;spacingRight=3;rotatable=0;labelPosition=right;points=[];portConstraint=eastwest;fontColor=#000000;labelBackgroundColor=#FFFFFF;" parent="zW2w3F0HKBU591fHyMtr-1" vertex="1">
                    <mxGeometry y="47" width="221" height="12" as="geometry"/>
                </mxCell>
                <mxCell id="zW2w3F0HKBU591fHyMtr-4" value="+ register_handler(Event_Handler)&#10;+ dispatch_event(Event)&#10;" style="text;align=left;verticalAlign=top;spacingLeft=4;spacingRight=4;overflow=hidden;rotatable=0;points=[[0,0.5],[1,0.5]];portConstraint=eastwest;fontColor=#000000;labelBackgroundColor=#FFFFFF;" parent="zW2w3F0HKBU591fHyMtr-1" vertex="1">
                    <mxGeometry y="59" width="221" height="47" as="geometry"/>
                </mxCell>
                <mxCell id="zW2w3F0HKBU591fHyMtr-5" value="&lt;&lt;interface&gt;&gt;&#10;Event" style="swimlane;fontStyle=1;align=center;verticalAlign=top;childLayout=stackLayout;horizontal=1;startSize=40;horizontalStack=0;resizeParent=1;resizeLast=0;collapsible=1;marginBottom=0;rounded=0;shadow=0;strokeWidth=1;fontColor=#000000;labelBackgroundColor=#FFFFFF;" parent="WIyWlLk6GJQsqaUBKTNV-1" vertex="1">
                    <mxGeometry x="-841" y="-293" width="129" height="68" as="geometry">
                        <mxRectangle x="230" y="140" width="160" height="26" as="alternateBounds"/>
                    </mxGeometry>
                </mxCell>
                <mxCell id="zW2w3F0HKBU591fHyMtr-6" value="- data: any" style="text;align=left;verticalAlign=top;spacingLeft=4;spacingRight=4;overflow=hidden;rotatable=0;points=[[0,0.5],[1,0.5]];portConstraint=eastwest;fontColor=#000000;labelBackgroundColor=#FFFFFF;" parent="zW2w3F0HKBU591fHyMtr-5" vertex="1">
                    <mxGeometry y="40" width="129" height="28" as="geometry"/>
                </mxCell>
                <mxCell id="zW2w3F0HKBU591fHyMtr-13" value="&lt;&lt;interface&gt;&gt;&#10;EventHandler" style="swimlane;fontStyle=1;align=center;verticalAlign=top;childLayout=stackLayout;horizontal=1;startSize=44;horizontalStack=0;resizeParent=1;resizeLast=0;collapsible=1;marginBottom=0;rounded=0;shadow=0;strokeWidth=1;fontColor=#000000;labelBackgroundColor=#FFFFFF;" parent="WIyWlLk6GJQsqaUBKTNV-1" vertex="1">
                    <mxGeometry x="-870.5" y="-603" width="188" height="78" as="geometry">
                        <mxRectangle x="230" y="140" width="160" height="26" as="alternateBounds"/>
                    </mxGeometry>
                </mxCell>
                <mxCell id="zW2w3F0HKBU591fHyMtr-16" value="+ handle_event(Event)&#10;" style="text;align=left;verticalAlign=top;spacingLeft=4;spacingRight=4;overflow=hidden;rotatable=0;points=[[0,0.5],[1,0.5]];portConstraint=eastwest;fontColor=#000000;labelBackgroundColor=#FFFFFF;" parent="zW2w3F0HKBU591fHyMtr-13" vertex="1">
                    <mxGeometry y="44" width="188" height="31" as="geometry"/>
                </mxCell>
                <mxCell id="zW2w3F0HKBU591fHyMtr-18" value="0..*" style="endArrow=open;html=1;endSize=12;startArrow=diamondThin;startSize=14;startFill=1;edgeStyle=orthogonalEdgeStyle;align=left;verticalAlign=bottom;rounded=0;exitX=0.5;exitY=0;exitDx=0;exitDy=0;fontColor=#000000;labelBackgroundColor=#FFFFFF;" parent="WIyWlLk6GJQsqaUBKTNV-1" source="zW2w3F0HKBU591fHyMtr-1" target="zW2w3F0HKBU591fHyMtr-13" edge="1">
                    <mxGeometry x="-0.819" y="-5" relative="1" as="geometry">
                        <mxPoint x="-603" y="-456" as="sourcePoint"/>
                        <mxPoint x="-456" y="-535" as="targetPoint"/>
                        <mxPoint x="1" as="offset"/>
                    </mxGeometry>
                </mxCell>
                <mxCell id="zW2w3F0HKBU591fHyMtr-28" value="interacts" style="endArrow=none;html=1;endSize=12;startArrow=none;startSize=14;startFill=0;edgeStyle=orthogonalEdgeStyle;align=left;verticalAlign=bottom;rounded=0;endFill=0;dashed=1;fontColor=#000000;labelBackgroundColor=#FFFFFF;" parent="WIyWlLk6GJQsqaUBKTNV-1" source="MlrfaoUMbUYHe8lj2B-a-166" target="zW2w3F0HKBU591fHyMtr-1" edge="1">
                    <mxGeometry x="0.6414" y="10" relative="1" as="geometry">
                        <mxPoint x="-810.5" y="-457" as="sourcePoint"/>
                        <mxPoint x="-810.5" y="-523" as="targetPoint"/>
                        <mxPoint as="offset"/>
                    </mxGeometry>
                </mxCell>
                <mxCell id="zW2w3F0HKBU591fHyMtr-29" value="manages" style="endArrow=none;html=1;endSize=12;startArrow=none;startSize=14;startFill=0;edgeStyle=orthogonalEdgeStyle;align=left;verticalAlign=bottom;rounded=0;endFill=0;dashed=1;fontColor=#000000;labelBackgroundColor=#FFFFFF;" parent="WIyWlLk6GJQsqaUBKTNV-1" source="zW2w3F0HKBU591fHyMtr-5" target="zW2w3F0HKBU591fHyMtr-1" edge="1">
                    <mxGeometry x="-0.3162" y="27" relative="1" as="geometry">
                        <mxPoint x="-480" y="-394" as="sourcePoint"/>
                        <mxPoint x="-656" y="-394" as="targetPoint"/>
                        <mxPoint x="1" as="offset"/>
                    </mxGeometry>
                </mxCell>
                <mxCell id="zW2w3F0HKBU591fHyMtr-30" value="GUI" style="swimlane;fontStyle=1;align=center;verticalAlign=top;childLayout=stackLayout;horizontal=1;startSize=26;horizontalStack=0;resizeParent=1;resizeLast=0;collapsible=1;marginBottom=0;rounded=0;shadow=0;strokeWidth=1;fontColor=#000000;labelBackgroundColor=#FFFFFF;" parent="WIyWlLk6GJQsqaUBKTNV-1" vertex="1">
                    <mxGeometry x="-1151" y="-596" width="175" height="106" as="geometry">
                        <mxRectangle x="230" y="140" width="160" height="26" as="alternateBounds"/>
                    </mxGeometry>
                </mxCell>
                <mxCell id="zW2w3F0HKBU591fHyMtr-31" value="- textures: Texture[0..*]" style="text;align=left;verticalAlign=top;spacingLeft=4;spacingRight=4;overflow=hidden;rotatable=0;points=[[0,0.5],[1,0.5]];portConstraint=eastwest;fontColor=#000000;labelBackgroundColor=#FFFFFF;" parent="zW2w3F0HKBU591fHyMtr-30" vertex="1">
                    <mxGeometry y="26" width="175" height="21" as="geometry"/>
                </mxCell>
                <mxCell id="zW2w3F0HKBU591fHyMtr-32" value="" style="line;html=1;strokeWidth=1;align=left;verticalAlign=middle;spacingTop=-1;spacingLeft=3;spacingRight=3;rotatable=0;labelPosition=right;points=[];portConstraint=eastwest;fontColor=#000000;labelBackgroundColor=#FFFFFF;" parent="zW2w3F0HKBU591fHyMtr-30" vertex="1">
                    <mxGeometry y="47" width="175" height="12" as="geometry"/>
                </mxCell>
                <mxCell id="zW2w3F0HKBU591fHyMtr-33" value="+ render()&#10;+ update_textures(EventBus)&#10;" style="text;align=left;verticalAlign=top;spacingLeft=4;spacingRight=4;overflow=hidden;rotatable=0;points=[[0,0.5],[1,0.5]];portConstraint=eastwest;fontColor=#000000;labelBackgroundColor=#FFFFFF;" parent="zW2w3F0HKBU591fHyMtr-30" vertex="1">
                    <mxGeometry y="59" width="175" height="47" as="geometry"/>
                </mxCell>
                <mxCell id="zW2w3F0HKBU591fHyMtr-34" value="interacts" style="endArrow=none;html=1;endSize=12;startArrow=none;startSize=14;startFill=0;edgeStyle=orthogonalEdgeStyle;align=left;verticalAlign=bottom;rounded=0;endFill=0;dashed=1;entryX=0;entryY=0.5;entryDx=0;entryDy=0;fontColor=#000000;labelBackgroundColor=#FFFFFF;" parent="WIyWlLk6GJQsqaUBKTNV-1" source="zW2w3F0HKBU591fHyMtr-30" target="zW2w3F0HKBU591fHyMtr-1" edge="1">
                    <mxGeometry x="0.263" y="-22" relative="1" as="geometry">
                        <mxPoint x="-480" y="-394" as="sourcePoint"/>
                        <mxPoint x="-656" y="-394" as="targetPoint"/>
                        <mxPoint as="offset"/>
                    </mxGeometry>
                </mxCell>
                <mxCell id="zW2w3F0HKBU591fHyMtr-35" value="KeyboardInput" style="swimlane;fontStyle=1;align=center;verticalAlign=top;childLayout=stackLayout;horizontal=1;startSize=26;horizontalStack=0;resizeParent=1;resizeLast=0;collapsible=1;marginBottom=0;rounded=0;shadow=0;strokeWidth=1;fontColor=#000000;labelBackgroundColor=#FFFFFF;" parent="WIyWlLk6GJQsqaUBKTNV-1" vertex="1">
                    <mxGeometry x="-1151" y="-367" width="175" height="125" as="geometry">
                        <mxRectangle x="230" y="140" width="160" height="26" as="alternateBounds"/>
                    </mxGeometry>
                </mxCell>
                <mxCell id="zW2w3F0HKBU591fHyMtr-36" value="- player_directions: bool[4]&#10;- buttons: bool[0..*]&#10;" style="text;align=left;verticalAlign=top;spacingLeft=4;spacingRight=4;overflow=hidden;rotatable=0;points=[[0,0.5],[1,0.5]];portConstraint=eastwest;fontColor=#000000;labelBackgroundColor=#FFFFFF;" parent="zW2w3F0HKBU591fHyMtr-35" vertex="1">
                    <mxGeometry y="26" width="175" height="40" as="geometry"/>
                </mxCell>
                <mxCell id="zW2w3F0HKBU591fHyMtr-37" value="" style="line;html=1;strokeWidth=1;align=left;verticalAlign=middle;spacingTop=-1;spacingLeft=3;spacingRight=3;rotatable=0;labelPosition=right;points=[];portConstraint=eastwest;fontColor=#000000;labelBackgroundColor=#FFFFFF;" parent="zW2w3F0HKBU591fHyMtr-35" vertex="1">
                    <mxGeometry y="66" width="175" height="12" as="geometry"/>
                </mxCell>
                <mxCell id="zW2w3F0HKBU591fHyMtr-38" value="+ handle_input()&#10;+ update(EventBus)&#10;" style="text;align=left;verticalAlign=top;spacingLeft=4;spacingRight=4;overflow=hidden;rotatable=0;points=[[0,0.5],[1,0.5]];portConstraint=eastwest;fontColor=#000000;labelBackgroundColor=#FFFFFF;" parent="zW2w3F0HKBU591fHyMtr-35" vertex="1">
                    <mxGeometry y="78" width="175" height="47" as="geometry"/>
                </mxCell>
                <mxCell id="zW2w3F0HKBU591fHyMtr-39" value="interacts" style="endArrow=none;html=1;endSize=12;startArrow=none;startSize=14;startFill=0;edgeStyle=orthogonalEdgeStyle;align=left;verticalAlign=bottom;rounded=0;endFill=0;dashed=1;fontColor=#000000;labelBackgroundColor=#FFFFFF;" parent="WIyWlLk6GJQsqaUBKTNV-1" source="zW2w3F0HKBU591fHyMtr-35" target="zW2w3F0HKBU591fHyMtr-1" edge="1">
                    <mxGeometry x="-0.1423" y="23" relative="1" as="geometry">
                        <mxPoint x="-966" y="-533" as="sourcePoint"/>
                        <mxPoint x="-877" y="-395" as="targetPoint"/>
                        <mxPoint as="offset"/>
                    </mxGeometry>
                </mxCell>
                <mxCell id="84" style="edgeStyle=orthogonalEdgeStyle;shape=connector;rounded=0;html=1;labelBackgroundColor=#FFFFFF;strokeColor=#000000;fontFamily=Helvetica;fontSize=11;fontColor=#000000;startArrow=diamondThin;startFill=1;endArrow=open;endFill=0;startSize=14;endSize=12;" edge="1" parent="WIyWlLk6GJQsqaUBKTNV-1" source="0" target="69">
                    <mxGeometry relative="1" as="geometry">
                        <Array as="points">
                            <mxPoint x="-548" y="835"/>
                        </Array>
                    </mxGeometry>
                </mxCell>
                <mxCell id="85" value="1" style="edgeLabel;html=1;align=center;verticalAlign=middle;resizable=0;points=[];fontSize=11;fontFamily=Helvetica;fontColor=#000000;labelBackgroundColor=#FFFFFF;" vertex="1" connectable="0" parent="84">
                    <mxGeometry x="0.2016" relative="1" as="geometry">
                        <mxPoint as="offset"/>
                    </mxGeometry>
                </mxCell>
                <mxCell id="0" value="Pixel" style="swimlane;fontStyle=1;align=center;verticalAlign=top;childLayout=stackLayout;horizontal=1;startSize=26;horizontalStack=0;resizeParent=1;resizeLast=0;collapsible=1;marginBottom=0;rounded=0;shadow=0;strokeWidth=2;labelBackgroundColor=none;fillColor=#E1D5E7;strokeColor=#9673A6;fontColor=#000000;" vertex="1" parent="WIyWlLk6GJQsqaUBKTNV-1">
                    <mxGeometry x="-471" y="763" width="159" height="144" as="geometry">
                        <mxRectangle x="230" y="140" width="160" height="26" as="alternateBounds"/>
                    </mxGeometry>
                </mxCell>
                <mxCell id="1" value="+ ra: int&#10;+ rb: int&#10;+ clock: int" style="text;align=left;verticalAlign=top;spacingLeft=4;spacingRight=4;overflow=hidden;rotatable=0;points=[[0,0.5],[1,0.5]];portConstraint=eastwest;rounded=0;shadow=0;html=0;fontColor=#000000;labelBackgroundColor=#FFFFFF;" vertex="1" parent="0">
                    <mxGeometry y="26" width="159" height="50" as="geometry"/>
                </mxCell>
                <mxCell id="2" value="" style="line;html=1;strokeWidth=1;align=left;verticalAlign=middle;spacingTop=-1;spacingLeft=3;spacingRight=3;rotatable=0;labelPosition=right;points=[];portConstraint=eastwest;fontColor=#000000;labelBackgroundColor=#FFFFFF;" vertex="1" parent="0">
                    <mxGeometry y="76" width="159" height="14" as="geometry"/>
                </mxCell>
                <mxCell id="3" value="+ update(ChunkAPI)&#10;+ get_element(): Element" style="text;align=left;verticalAlign=top;spacingLeft=4;spacingRight=4;overflow=hidden;rotatable=0;points=[[0,0.5],[1,0.5]];portConstraint=eastwest;fontColor=#000000;labelBackgroundColor=#FFFFFF;" vertex="1" parent="0">
                    <mxGeometry y="90" width="159" height="54" as="geometry"/>
                </mxCell>
                <mxCell id="23" value="1" style="edgeStyle=orthogonalEdgeStyle;shape=connector;rounded=0;html=1;labelBackgroundColor=#FFFFFF;strokeColor=#000000;fontFamily=Helvetica;fontSize=11;fontColor=#000000;startArrow=diamondThin;startFill=1;endArrow=open;endFill=0;startSize=14;endSize=12;" edge="1" parent="WIyWlLk6GJQsqaUBKTNV-1" source="4" target="14">
                    <mxGeometry x="0.0131" y="8" relative="1" as="geometry">
                        <mxPoint as="offset"/>
                    </mxGeometry>
                </mxCell>
                <mxCell id="24" style="edgeStyle=orthogonalEdgeStyle;shape=connector;rounded=0;html=1;labelBackgroundColor=#FFFFFF;strokeColor=#000000;fontFamily=Helvetica;fontSize=11;fontColor=#000000;startArrow=diamondThin;startFill=1;endArrow=open;endFill=0;startSize=14;endSize=12;" edge="1" parent="WIyWlLk6GJQsqaUBKTNV-1" source="4" target="0">
                    <mxGeometry relative="1" as="geometry"/>
                </mxCell>
                <mxCell id="27" value="4096" style="edgeLabel;html=1;align=center;verticalAlign=middle;resizable=0;points=[];fontSize=11;fontFamily=Helvetica;fontColor=#000000;labelBackgroundColor=#FFFFFF;" vertex="1" connectable="0" parent="24">
                    <mxGeometry x="0.1629" y="2" relative="1" as="geometry">
                        <mxPoint x="8" y="-11" as="offset"/>
                    </mxGeometry>
                </mxCell>
                <mxCell id="4" value="ChunkData" style="swimlane;fontStyle=1;align=center;verticalAlign=top;childLayout=stackLayout;horizontal=1;startSize=26;horizontalStack=0;resizeParent=1;resizeLast=0;collapsible=1;marginBottom=0;rounded=0;shadow=0;strokeWidth=2;labelBackgroundColor=none;fillColor=#E1D5E7;strokeColor=#9673A6;fontColor=#000000;" vertex="1" parent="WIyWlLk6GJQsqaUBKTNV-1">
                    <mxGeometry x="-233.5" y="822" width="104" height="26" as="geometry">
                        <mxRectangle x="230" y="140" width="160" height="26" as="alternateBounds"/>
                    </mxGeometry>
                </mxCell>
                <mxCell id="14" value="&lt;p style=&quot;margin:0px;margin-top:4px;text-align:center;&quot;&gt;&amp;lt;&amp;lt;enumeration&amp;gt;&amp;gt;&lt;br&gt;&lt;b&gt;ChunkState&lt;/b&gt;&lt;/p&gt;&lt;hr&gt;&lt;p style=&quot;margin:0px;margin-left:8px;text-align:left;&quot;&gt;Initilialized&lt;/p&gt;&lt;p style=&quot;margin:0px;margin-left:8px;text-align:left;&quot;&gt;Generating&lt;/p&gt;&lt;p style=&quot;margin:0px;margin-left:8px;text-align:left;&quot;&gt;Sleeping&lt;/p&gt;&lt;p style=&quot;margin:0px;margin-left:8px;text-align:left;&quot;&gt;Active&lt;/p&gt;&lt;p style=&quot;margin:0px;margin-left:8px;text-align:left;&quot;&gt;&lt;br&gt;&lt;/p&gt;" style="shape=rect;html=1;overflow=fill;whiteSpace=wrap;rounded=0;shadow=0;labelBackgroundColor=none;strokeColor=#9673A6;strokeWidth=2;fontFamily=Helvetica;fontSize=12;fontColor=#000000;startSize=26;fillColor=#E1D5E7;" vertex="1" parent="WIyWlLk6GJQsqaUBKTNV-1">
                    <mxGeometry x="-242" y="905.25" width="121" height="112.5" as="geometry"/>
                </mxCell>
                <mxCell id="33" style="edgeStyle=orthogonalEdgeStyle;shape=connector;rounded=0;html=1;labelBackgroundColor=#FFFFFF;strokeColor=#000000;fontFamily=Helvetica;fontSize=11;fontColor=#000000;startArrow=none;startFill=0;endArrow=open;endFill=0;startSize=14;endSize=12;exitX=0.5;exitY=1;exitDx=0;exitDy=0;" edge="1" parent="WIyWlLk6GJQsqaUBKTNV-1" source="36" target="4">
                    <mxGeometry relative="1" as="geometry"/>
                </mxCell>
                <mxCell id="37" value="1" style="edgeLabel;html=1;align=center;verticalAlign=middle;resizable=0;points=[];fontSize=11;fontFamily=Helvetica;fontColor=#000000;labelBackgroundColor=#FFFFFF;" vertex="1" connectable="0" parent="33">
                    <mxGeometry x="-0.8126" relative="1" as="geometry">
                        <mxPoint x="9" y="-6" as="offset"/>
                    </mxGeometry>
                </mxCell>
                <mxCell id="38" value="0..1" style="edgeLabel;html=1;align=center;verticalAlign=middle;resizable=0;points=[];fontSize=11;fontFamily=Helvetica;fontColor=#000000;labelBackgroundColor=#FFFFFF;" vertex="1" connectable="0" parent="33">
                    <mxGeometry x="0.5741" y="1" relative="1" as="geometry">
                        <mxPoint x="17" y="4" as="offset"/>
                    </mxGeometry>
                </mxCell>
                <mxCell id="53" style="edgeStyle=orthogonalEdgeStyle;shape=connector;rounded=0;html=1;labelBackgroundColor=#FFFFFF;strokeColor=#000000;fontFamily=Helvetica;fontSize=11;fontColor=#000000;startArrow=none;startFill=0;endArrow=open;endFill=0;startSize=14;endSize=12;exitX=0.5;exitY=1;exitDx=0;exitDy=0;" edge="1" parent="WIyWlLk6GJQsqaUBKTNV-1" source="46" target="4">
                    <mxGeometry relative="1" as="geometry">
                        <Array as="points">
                            <mxPoint x="-365" y="734"/>
                            <mxPoint x="-209" y="734"/>
                        </Array>
                    </mxGeometry>
                </mxCell>
                <mxCell id="54" value="1..9" style="edgeLabel;html=1;align=center;verticalAlign=middle;resizable=0;points=[];fontSize=11;fontFamily=Helvetica;fontColor=#000000;labelBackgroundColor=#FFFFFF;" vertex="1" connectable="0" parent="53">
                    <mxGeometry x="-0.1751" y="1" relative="1" as="geometry">
                        <mxPoint x="71" y="62" as="offset"/>
                    </mxGeometry>
                </mxCell>
                <mxCell id="57" value="stores references &lt;br&gt;to adjacent chunks" style="edgeLabel;html=1;align=center;verticalAlign=middle;resizable=0;points=[];fontSize=11;fontFamily=Helvetica;fontColor=#000000;labelBackgroundColor=#FFFFFF;" vertex="1" connectable="0" parent="53">
                    <mxGeometry x="-0.1055" y="2" relative="1" as="geometry">
                        <mxPoint x="10" y="3" as="offset"/>
                    </mxGeometry>
                </mxCell>
                <mxCell id="46" value="ChunkGroup" style="swimlane;fontStyle=1;align=center;verticalAlign=top;childLayout=stackLayout;horizontal=1;startSize=26;horizontalStack=0;resizeParent=1;resizeLast=0;collapsible=1;marginBottom=0;rounded=0;shadow=0;strokeWidth=2;labelBackgroundColor=none;fillColor=#E1D5E7;strokeColor=#9673A6;fontColor=#000000;" vertex="1" parent="WIyWlLk6GJQsqaUBKTNV-1">
                    <mxGeometry x="-445" y="522" width="159" height="144" as="geometry">
                        <mxRectangle x="230" y="140" width="160" height="26" as="alternateBounds"/>
                    </mxGeometry>
                </mxCell>
                <mxCell id="47" value="+ ra: int&#10;+ rb: int&#10;+ clock: int" style="text;align=left;verticalAlign=top;spacingLeft=4;spacingRight=4;overflow=hidden;rotatable=0;points=[[0,0.5],[1,0.5]];portConstraint=eastwest;rounded=0;shadow=0;html=0;fontColor=#000000;labelBackgroundColor=#FFFFFF;" vertex="1" parent="46">
                    <mxGeometry y="26" width="159" height="50" as="geometry"/>
                </mxCell>
                <mxCell id="48" value="" style="line;html=1;strokeWidth=1;align=left;verticalAlign=middle;spacingTop=-1;spacingLeft=3;spacingRight=3;rotatable=0;labelPosition=right;points=[];portConstraint=eastwest;fontColor=#000000;labelBackgroundColor=#FFFFFF;" vertex="1" parent="46">
                    <mxGeometry y="76" width="159" height="14" as="geometry"/>
                </mxCell>
                <mxCell id="49" value="+ update(ChunkAPI)&#10;+ get_element(): Element&#10;+ get_simulation(): Simulation&#10;" style="text;align=left;verticalAlign=top;spacingLeft=4;spacingRight=4;overflow=hidden;rotatable=0;points=[[0,0.5],[1,0.5]];portConstraint=eastwest;fontColor=#000000;labelBackgroundColor=#FFFFFF;" vertex="1" parent="46">
                    <mxGeometry y="90" width="159" height="54" as="geometry"/>
                </mxCell>
                <mxCell id="62" style="edgeStyle=orthogonalEdgeStyle;shape=connector;rounded=0;html=1;labelBackgroundColor=#FFFFFF;strokeColor=#000000;fontFamily=Helvetica;fontSize=11;fontColor=#000000;startArrow=diamondThin;startFill=0;endArrow=open;endFill=0;startSize=14;endSize=12;" edge="1" parent="WIyWlLk6GJQsqaUBKTNV-1" source="58" target="46">
                    <mxGeometry relative="1" as="geometry">
                        <Array as="points">
                            <mxPoint x="-490" y="596"/>
                            <mxPoint x="-490" y="596"/>
                        </Array>
                    </mxGeometry>
                </mxCell>
                <mxCell id="63" value="1" style="edgeLabel;html=1;align=center;verticalAlign=middle;resizable=0;points=[];fontSize=11;fontFamily=Helvetica;fontColor=#000000;labelBackgroundColor=#FFFFFF;" vertex="1" connectable="0" parent="62">
                    <mxGeometry x="0.1834" y="1" relative="1" as="geometry">
                        <mxPoint x="-6" y="1" as="offset"/>
                    </mxGeometry>
                </mxCell>
                <mxCell id="58" value="ChunkApi" style="swimlane;fontStyle=1;align=center;verticalAlign=top;childLayout=stackLayout;horizontal=1;startSize=26;horizontalStack=0;resizeParent=1;resizeLast=0;collapsible=1;marginBottom=0;rounded=0;shadow=0;strokeWidth=2;labelBackgroundColor=none;fillColor=#E1D5E7;strokeColor=#9673A6;fontColor=#000000;" vertex="1" parent="WIyWlLk6GJQsqaUBKTNV-1">
                    <mxGeometry x="-690" y="522" width="159" height="216" as="geometry">
                        <mxRectangle x="230" y="140" width="160" height="26" as="alternateBounds"/>
                    </mxGeometry>
                </mxCell>
                <mxCell id="59" value="+ pixel_position: IVector2&#10;+ chunk_position: IVector2&#10;+ clock: int" style="text;align=left;verticalAlign=top;spacingLeft=4;spacingRight=4;overflow=hidden;rotatable=0;points=[[0,0.5],[1,0.5]];portConstraint=eastwest;rounded=0;shadow=0;html=0;fontColor=#000000;labelBackgroundColor=#FFFFFF;" vertex="1" parent="58">
                    <mxGeometry y="26" width="159" height="50" as="geometry"/>
                </mxCell>
                <mxCell id="60" value="" style="line;html=1;strokeWidth=1;align=left;verticalAlign=middle;spacingTop=-1;spacingLeft=3;spacingRight=3;rotatable=0;labelPosition=right;points=[];portConstraint=eastwest;fontColor=#000000;labelBackgroundColor=#FFFFFF;strokeColor=#000000;" vertex="1" parent="58">
                    <mxGeometry y="76" width="159" height="14" as="geometry"/>
                </mxCell>
                <mxCell id="61" value="+ get(IVector2): Pixel&#10;+ set(IVector2, Pixel)&#10;+ match(IVector2, Material)&#10;+ swap(IVector2)&#10;+ update(Pixel)&#10;+ random_direction()&#10;+ random_int(int)&#10;+ once_in(int)" style="text;align=left;verticalAlign=top;spacingLeft=4;spacingRight=4;overflow=hidden;rotatable=0;points=[[0,0.5],[1,0.5]];portConstraint=eastwest;fontColor=#000000;labelBackgroundColor=#FFFFFF;" vertex="1" parent="58">
                    <mxGeometry y="90" width="159" height="125" as="geometry"/>
                </mxCell>
                <mxCell id="68" value="" style="group" vertex="1" connectable="0" parent="WIyWlLk6GJQsqaUBKTNV-1">
                    <mxGeometry x="-261" y="522" width="159" height="138" as="geometry"/>
                </mxCell>
                <mxCell id="29" value="ChunkManager" style="swimlane;fontStyle=1;align=center;verticalAlign=top;childLayout=stackLayout;horizontal=1;startSize=26;horizontalStack=0;resizeParent=1;resizeLast=0;collapsible=1;marginBottom=0;rounded=0;shadow=0;strokeWidth=2;labelBackgroundColor=none;fillColor=#E1D5E7;strokeColor=#9673A6;fontColor=#000000;" vertex="1" parent="68">
                    <mxGeometry width="159" height="121" as="geometry">
                        <mxRectangle x="230" y="140" width="160" height="26" as="alternateBounds"/>
                    </mxGeometry>
                </mxCell>
                <mxCell id="30" value="+ clock: int" style="text;align=left;verticalAlign=top;spacingLeft=4;spacingRight=4;overflow=hidden;rotatable=0;points=[[0,0.5],[1,0.5]];portConstraint=eastwest;rounded=0;shadow=0;html=0;fontColor=#000000;labelBackgroundColor=#FFFFFF;" vertex="1" parent="29">
                    <mxGeometry y="26" width="159" height="21" as="geometry"/>
                </mxCell>
                <mxCell id="31" value="" style="line;html=1;strokeWidth=1;align=left;verticalAlign=middle;spacingTop=-1;spacingLeft=3;spacingRight=3;rotatable=0;labelPosition=right;points=[];portConstraint=eastwest;labelBackgroundColor=#FFFFFF;strokeColor=#9673A6;" vertex="1" parent="29">
                    <mxGeometry y="47" width="159" height="14" as="geometry"/>
                </mxCell>
                <mxCell id="32" value="+ update_chunks()&#10;+ set_pixel(IVector2)&#10;+ get_pixel(IVector2)" style="text;align=left;verticalAlign=top;spacingLeft=4;spacingRight=4;overflow=hidden;rotatable=0;points=[[0,0.5],[1,0.5]];portConstraint=eastwest;fontColor=#000000;labelBackgroundColor=#FFFFFF;" vertex="1" parent="29">
                    <mxGeometry y="61" width="159" height="47" as="geometry"/>
                </mxCell>
                <mxCell id="36" value="&lt;font color=&quot;#000000&quot;&gt;IVector2&lt;/font&gt;" style="rounded=0;whiteSpace=wrap;html=1;shadow=0;labelBackgroundColor=none;strokeWidth=1;fontFamily=Helvetica;fontSize=11;startSize=26;fillColor=none;strokeColor=#9673A6;" vertex="1" parent="68">
                    <mxGeometry x="48" y="121" width="63" height="17" as="geometry"/>
                </mxCell>
                <mxCell id="78" style="edgeStyle=orthogonalEdgeStyle;shape=connector;rounded=0;html=1;labelBackgroundColor=#FFFFFF;strokeColor=#000000;fontFamily=Helvetica;fontSize=11;fontColor=#000000;startArrow=diamondThin;startFill=1;endArrow=open;endFill=0;startSize=14;endSize=12;" edge="1" parent="WIyWlLk6GJQsqaUBKTNV-1" source="69" target="76">
                    <mxGeometry relative="1" as="geometry">
                        <Array as="points">
                            <mxPoint x="-629" y="934"/>
                            <mxPoint x="-629" y="934"/>
                        </Array>
                    </mxGeometry>
                </mxCell>
                <mxCell id="79" value="1" style="edgeLabel;html=1;align=center;verticalAlign=middle;resizable=0;points=[];fontSize=11;fontFamily=Helvetica;fontColor=#000000;labelBackgroundColor=#FFFFFF;" vertex="1" connectable="0" parent="78">
                    <mxGeometry x="0.1175" y="1" relative="1" as="geometry">
                        <mxPoint x="9" y="2" as="offset"/>
                    </mxGeometry>
                </mxCell>
                <mxCell id="82" style="edgeStyle=orthogonalEdgeStyle;shape=connector;rounded=0;html=1;labelBackgroundColor=#FFFFFF;strokeColor=#000000;fontFamily=Helvetica;fontSize=11;fontColor=#000000;startArrow=diamondThin;startFill=1;endArrow=open;endFill=0;startSize=14;endSize=12;" edge="1" parent="WIyWlLk6GJQsqaUBKTNV-1" source="69" target="80">
                    <mxGeometry relative="1" as="geometry"/>
                </mxCell>
                <mxCell id="83" value="0..1" style="edgeLabel;html=1;align=center;verticalAlign=middle;resizable=0;points=[];fontSize=11;fontFamily=Helvetica;fontColor=#000000;labelBackgroundColor=#FFFFFF;" vertex="1" connectable="0" parent="82">
                    <mxGeometry x="-0.1199" relative="1" as="geometry">
                        <mxPoint x="3" y="-8" as="offset"/>
                    </mxGeometry>
                </mxCell>
                <mxCell id="69" value="MaterialInstance" style="swimlane;fontStyle=1;align=center;verticalAlign=top;childLayout=stackLayout;horizontal=1;startSize=26;horizontalStack=0;resizeParent=1;resizeLast=0;collapsible=1;marginBottom=0;rounded=0;shadow=0;strokeWidth=2;labelBackgroundColor=none;fillColor=#E1D5E7;strokeColor=#9673A6;fontColor=#000000;" vertex="1" parent="WIyWlLk6GJQsqaUBKTNV-1">
                    <mxGeometry x="-690" y="944" width="159" height="76" as="geometry">
                        <mxRectangle x="230" y="140" width="160" height="26" as="alternateBounds"/>
                    </mxGeometry>
                </mxCell>
                <mxCell id="70" value="+ id: String&lt;br&gt;+ color: int [4]" style="text;align=left;verticalAlign=top;spacingLeft=4;spacingRight=4;overflow=hidden;rotatable=0;points=[[0,0.5],[1,0.5]];portConstraint=eastwest;rounded=0;shadow=0;html=1;fontColor=#000000;labelBackgroundColor=#FFFFFF;" vertex="1" parent="69">
                    <mxGeometry y="26" width="159" height="50" as="geometry"/>
                </mxCell>
                <mxCell id="76" value="&lt;p style=&quot;margin:0px;margin-top:4px;text-align:center;&quot;&gt;&amp;lt;&amp;lt;enumeration&amp;gt;&amp;gt;&lt;br&gt;&lt;b&gt;PhysicsType&lt;/b&gt;&lt;/p&gt;&lt;hr&gt;&lt;p style=&quot;margin:0px;margin-left:8px;text-align:left;&quot;&gt;Air&lt;/p&gt;&lt;p style=&quot;margin:0px;margin-left:8px;text-align:left;&quot;&gt;Static&lt;/p&gt;&lt;p style=&quot;margin:0px;margin-left:8px;text-align:left;&quot;&gt;Powder&lt;/p&gt;&lt;p style=&quot;margin:0px;margin-left:8px;text-align:left;&quot;&gt;Liquid&lt;/p&gt;&lt;p style=&quot;margin:0px;margin-left:8px;text-align:left;&quot;&gt;Gas&lt;/p&gt;&lt;p style=&quot;margin:0px;margin-left:8px;text-align:left;&quot;&gt;Rigidbody&lt;/p&gt;" style="shape=rect;html=1;overflow=fill;whiteSpace=wrap;rounded=0;shadow=0;labelBackgroundColor=none;strokeColor=#9673A6;strokeWidth=2;fontFamily=Helvetica;fontSize=12;fontColor=#000000;startSize=26;fillColor=#E1D5E7;" vertex="1" parent="WIyWlLk6GJQsqaUBKTNV-1">
                    <mxGeometry x="-690" y="755" width="121" height="140.25" as="geometry"/>
                </mxCell>
                <mxCell id="80" value="FireParameters" style="swimlane;fontStyle=1;align=center;verticalAlign=top;childLayout=stackLayout;horizontal=1;startSize=26;horizontalStack=0;resizeParent=1;resizeLast=0;collapsible=1;marginBottom=0;rounded=0;shadow=0;strokeWidth=2;labelBackgroundColor=none;fillColor=#E1D5E7;strokeColor=#9673A6;fontColor=#000000;" vertex="1" parent="WIyWlLk6GJQsqaUBKTNV-1">
                    <mxGeometry x="-463" y="942" width="159" height="80" as="geometry">
                        <mxRectangle x="230" y="140" width="160" height="26" as="alternateBounds"/>
                    </mxGeometry>
                </mxCell>
                <mxCell id="81" value="&lt;div&gt;+ fire_temperature: int&lt;/div&gt;&lt;div&gt;+ ignition_temperature: int&lt;/div&gt;&lt;div&gt;+ fire_hp: int&lt;/div&gt;" style="text;align=left;verticalAlign=top;spacingLeft=4;spacingRight=4;overflow=hidden;rotatable=0;points=[[0,0.5],[1,0.5]];portConstraint=eastwest;rounded=0;shadow=0;html=1;fontColor=#000000;labelBackgroundColor=#FFFFFF;" vertex="1" parent="80">
                    <mxGeometry y="26" width="159" height="50" as="geometry"/>
                </mxCell>
            </root>
        </mxGraphModel>
    </diagram>
</mxfile>